{
    "asset" : {
        "generator" : "Khronos glTF Blender I/O v1.8.19",
        "version" : "2.0"
    },
    "scene" : 0,
    "scenes" : [
        {
            "name" : "Scene",
            "nodes" : [
                0
            ]
        }
    ],
    "nodes" : [
        {
            "mesh" : 0,
            "name" : "9.0.242.001",
            "rotation" : [
                0.7071068286895752,
                0,
                0,
                0.7071067094802856
            ],
            "scale" : [
                0.6254172325134277,
                0.622277021408081,
                0.7437854409217834
            ],
            "translation" : [
                21.93383026123047,
                -9.400247573852539,
                -7.143023490905762
            ]
        }
    ],
    "materials" : [
        {
            "doubleSided" : true,
            "name" : "Default OBJ.002",
            "pbrMetallicRoughness" : {
                "baseColorFactor" : [
                    0.2667609453201294,
                    0.24532441794872284,
                    0.2613036632537842,
                    1
                ],
                "metallicFactor" : 0.3945578336715698,
                "roughnessFactor" : 0.4000000059604645
            }
        }
    ],
    "meshes" : [
        {
            "name" : "9.0.242.001",
            "primitives" : [
                {
                    "attributes" : {
                        "POSITION" : 0,
                        "NORMAL" : 1
                    },
                    "indices" : 2,
                    "material" : 0
                }
            ]
        }
    ],
    "accessors" : [
        {
            "bufferView" : 0,
            "componentType" : 5126,
            "count" : 17141,
            "max" : [
                -25.300336837768555,
                19.211694717407227,
                -13.733285903930664
            ],
            "min" : [
                -31.278898239135742,
                15.893196105957031,
                -19.369674682617188
            ],
            "type" : "VEC3"
        },
        {
            "bufferView" : 1,
            "componentType" : 5126,
            "count" : 17141,
            "type" : "VEC3"
        },
        {
            "bufferView" : 2,
            "componentType" : 5123,
            "count" : 99657,
            "type" : "SCALAR"
        }
    ],
    "bufferViews" : [
        {
            "buffer" : 0,
            "byteLength" : 205692,
            "byteOffset" : 0
        },
        {
            "buffer" : 0,
            "byteLength" : 205692,
            "byteOffset" : 205692
        },
        {
            "buffer" : 0,
            "byteLength" : 199314,
            "byteOffset" : 411384
        }
    ],
    "buffers" : [
        {
            "byteLength" : 610700,
            "uri" : "data:application/octet-stream;base64,"
        }
    ]
}
