{
    "asset" : {
        "generator" : "Khronos glTF Blender I/O v1.8.19",
        "version" : "2.0"
    },
    "scene" : 0,
    "scenes" : [
        {
            "name" : "Scene",
            "nodes" : [
                0
            ]
        }
    ],
    "nodes" : [
        {
            "mesh" : 0,
            "name" : "caliper",
            "rotation" : [
                0.7071068286895752,
                0,
                0,
                0.7071067094802856
            ],
            "scale" : [
                0.012078391388058662,
                0.012078391388058662,
                0.012078391388058662
            ],
            "translation" : [
                0,
                1.767386794090271,
                0
            ]
        }
    ],
    "materials" : [
        {
            "doubleSided" : true,
            "name" : "Material",
            "pbrMetallicRoughness" : {
                "baseColorFactor" : [
                    0.8000000715255737,
                    0.6845876574516296,
                    0.6845876574516296,
                    1
                ],
                "metallicFactor" : 0.6870748400688171,
                "roughnessFactor" : 0.4000000059604645
            }
        }
    ],
    "meshes" : [
        {
            "name" : "caliper",
            "primitives" : [
                {
                    "attributes" : {
                        "POSITION" : 0,
                        "NORMAL" : 1,
                        "TEXCOORD_0" : 2
                    },
                    "indices" : 3,
                    "material" : 0
                }
            ]
        }
    ],
    "accessors" : [
        {
            "bufferView" : 0,
            "componentType" : 5126,
            "count" : 45451,
            "max" : [
                49.084861755371094,
                120.4216079711914,
                120.3966064453125
            ],
            "min" : [
                -17.900014877319336,
                -120.48599243164062,
                -157.8729248046875
            ],
            "type" : "VEC3"
        },
        {
            "bufferView" : 1,
            "componentType" : 5126,
            "count" : 45451,
            "type" : "VEC3"
        },
        {
            "bufferView" : 2,
            "componentType" : 5126,
            "count" : 45451,
            "type" : "VEC2"
        },
        {
            "bufferView" : 3,
            "componentType" : 5123,
            "count" : 188664,
            "type" : "SCALAR"
        }
    ],
    "bufferViews" : [
        {
            "buffer" : 0,
            "byteLength" : 545412,
            "byteOffset" : 0
        },
        {
            "buffer" : 0,
            "byteLength" : 545412,
            "byteOffset" : 545412
        },
        {
            "buffer" : 0,
            "byteLength" : 363608,
            "byteOffset" : 1090824
        },
        {
            "buffer" : 0,
            "byteLength" : 377328,
            "byteOffset" : 1454432
        }
    ],
    "buffers" : [
        {
            "byteLength" : 1831760,
            "uri" : "data:application/octet-stream;base64,"
        }
    ]
}
