{
    "asset" : {
        "generator" : "Khronos glTF Blender I/O v1.7.33",
        "version" : "2.0"
    },
    "scene" : 0,
    "scenes" : [
        {
            "name" : "Scene",
            "nodes" : [
                0,
                1
            ]
        }
    ],
    "nodes" : [
        {
            "mesh" : 0,
            "name" : "Cylinder.014",
            "rotation" : [
                -0.6812824010848999,
                -0.22894130647182465,
                -0.6561481952667236,
                -0.2300214320421219
            ],
            "scale" : [
                0.05000000074505806,
                0.42500007152557373,
                0.05000000074505806
            ],
            "translation" : [
                4.451785564422607,
                4.670081615447998,
                0.13754431903362274
            ]
        },
        {
            "mesh" : 1,
            "name" : "Cylinder.016",
            "rotation" : [
                -0.31985318660736084,
                -0.6436253190040588,
                -0.3013170063495636,
                -0.6266167759895325
            ],
            "scale" : [
                0.04999999701976776,
                0.02499999850988388,
                0.04999999701976776
            ],
            "translation" : [
                4.451782703399658,
                4.670083522796631,
                0.13754434883594513
            ]
        }
    ],
    "materials" : [
        {
            "doubleSided" : true,
            "name" : "Material.044",
            "pbrMetallicRoughness" : {
                "baseColorFactor" : [
                    1,
                    0.3879825174808502,
                    0,
                    1
                ],
                "metallicFactor" : 0,
                "roughnessFactor" : 0.5
            }
        },
        {
            "doubleSided" : true,
            "name" : "Material.046",
            "pbrMetallicRoughness" : {
                "baseColorFactor" : [
                    0.0800115242600441,
                    0.0800115242600441,
                    0.0800115242600441,
                    1
                ],
                "metallicFactor" : 0,
                "roughnessFactor" : 0.5
            }
        },
        {
            "doubleSided" : true,
            "name" : "Material.045",
            "pbrMetallicRoughness" : {
                "baseColorFactor" : [
                    0.800000011920929,
                    0.800000011920929,
                    0.800000011920929,
                    1
                ],
                "metallicFactor" : 0,
                "roughnessFactor" : 0.5
            }
        }
    ],
    "meshes" : [
        {
            "name" : "Cylinder.018",
            "primitives" : [
                {
                    "attributes" : {
                        "POSITION" : 0,
                        "NORMAL" : 1
                    },
                    "indices" : 2,
                    "material" : 0
                }
            ]
        },
        {
            "name" : "Cylinder.020",
            "primitives" : [
                {
                    "attributes" : {
                        "POSITION" : 3,
                        "NORMAL" : 4
                    },
                    "indices" : 5,
                    "material" : 1
                },
                {
                    "attributes" : {
                        "POSITION" : 6,
                        "NORMAL" : 7
                    },
                    "indices" : 8,
                    "material" : 2
                }
            ]
        }
    ],
    "accessors" : [
        {
            "bufferView" : 0,
            "componentType" : 5126,
            "count" : 72,
            "max" : [
                6.92767333984375,
                1.6596097946166992,
                4.074871063232422
            ],
            "min" : [
                4.92767333984375,
                -0.693331241607666,
                2.074871063232422
            ],
            "type" : "VEC3"
        },
        {
            "bufferView" : 1,
            "componentType" : 5126,
            "count" : 72,
            "type" : "VEC3"
        },
        {
            "bufferView" : 2,
            "componentType" : 5123,
            "count" : 426,
            "type" : "SCALAR"
        },
        {
            "bufferView" : 3,
            "componentType" : 5126,
            "count" : 827,
            "max" : [
                24.637399673461914,
                12.92218017578125,
                4.0755615234375
            ],
            "min" : [
                22.637399673461914,
                10.921829223632812,
                2.0755538940429688
            ],
            "type" : "VEC3"
        },
        {
            "bufferView" : 4,
            "componentType" : 5126,
            "count" : 827,
            "type" : "VEC3"
        },
        {
            "bufferView" : 5,
            "componentType" : 5123,
            "count" : 1131,
            "type" : "SCALAR"
        },
        {
            "bufferView" : 6,
            "componentType" : 5126,
            "count" : 263,
            "max" : [
                23.33091163635254,
                12.92218017578125,
                3.5755577087402344
            ],
            "min" : [
                3.7512073516845703,
                10.92218017578125,
                2.5755538940429688
            ],
            "type" : "VEC3"
        },
        {
            "bufferView" : 7,
            "componentType" : 5126,
            "count" : 263,
            "type" : "VEC3"
        },
        {
            "bufferView" : 8,
            "componentType" : 5123,
            "count" : 333,
            "type" : "SCALAR"
        }
    ],
    "bufferViews" : [
        {
            "buffer" : 0,
            "byteLength" : 864,
            "byteOffset" : 0
        },
        {
            "buffer" : 0,
            "byteLength" : 864,
            "byteOffset" : 864
        },
        {
            "buffer" : 0,
            "byteLength" : 852,
            "byteOffset" : 1728
        },
        {
            "buffer" : 0,
            "byteLength" : 9924,
            "byteOffset" : 2580
        },
        {
            "buffer" : 0,
            "byteLength" : 9924,
            "byteOffset" : 12504
        },
        {
            "buffer" : 0,
            "byteLength" : 2262,
            "byteOffset" : 22428
        },
        {
            "buffer" : 0,
            "byteLength" : 3156,
            "byteOffset" : 24692
        },
        {
            "buffer" : 0,
            "byteLength" : 3156,
            "byteOffset" : 27848
        },
        {
            "buffer" : 0,
            "byteLength" : 666,
            "byteOffset" : 31004
        }
    ],
    "buffers" : [
        {
            "byteLength" : 31672,
            "uri" : "data:application/octet-stream;base64,"
        }
    ]
}
