{
    "asset" : {
        "generator" : "Khronos glTF Blender I/O v1.8.19",
        "version" : "2.0"
    },
    "scene" : 0,
    "scenes" : [
        {
            "name" : "Scene",
            "nodes" : [
                0
            ]
        }
    ],
    "nodes" : [
        {
            "mesh" : 0,
            "name" : "Mesh_0",
            "translation" : [
                0,
                1.4523402452468872,
                0
            ]
        }
    ],
    "materials" : [
        {
            "doubleSided" : true,
            "name" : "Material",
            "pbrMetallicRoughness" : {
                "baseColorFactor" : [
                    0.8000000715255737,
                    0.038828346878290176,
                    0.038828346878290176,
                    1
                ],
                "metallicFactor" : 0,
                "roughnessFactor" : 0.3183673620223999
            }
        }
    ],
    "meshes" : [
        {
            "name" : "Mesh_0",
            "primitives" : [
                {
                    "attributes" : {
                        "POSITION" : 0,
                        "NORMAL" : 1
                    },
                    "indices" : 2,
                    "material" : 0
                }
            ]
        }
    ],
    "accessors" : [
        {
            "bufferView" : 0,
            "componentType" : 5126,
            "count" : 52446,
            "max" : [
                6.095012187957764,
                0.5607179999351501,
                1.402500033378601
            ],
            "min" : [
                -6.095012187957764,
                -0.5607179999351501,
                -1.402500033378601
            ],
            "type" : "VEC3"
        },
        {
            "bufferView" : 1,
            "componentType" : 5126,
            "count" : 52446,
            "type" : "VEC3"
        },
        {
            "bufferView" : 2,
            "componentType" : 5123,
            "count" : 52938,
            "type" : "SCALAR"
        }
    ],
    "bufferViews" : [
        {
            "buffer" : 0,
            "byteLength" : 629352,
            "byteOffset" : 0
        },
        {
            "buffer" : 0,
            "byteLength" : 629352,
            "byteOffset" : 629352
        },
        {
            "buffer" : 0,
            "byteLength" : 105876,
            "byteOffset" : 1258704
        }
    ],
    "buffers" : [
        {
            "byteLength" : 1364580,
            "uri" : "data:application/octet-stream;base64,"
        }
    ]
}
