{"accessors" : [{"bufferView" : 0, "byteOffset" : 0, "componentType" : 5123, "count" : 70848, "type" : "SCALAR", "max" : [59266], "min" : [0]}, {"bufferView" : 1, "byteOffset" : 0, "componentType" : 5126, "count" : 59267, "type" : "VEC3", "max" : [31.30153465270996, 9.477638244628906, 132.0473175048828], "min" : [-9.375752449035645, -9.477638244628906, 0.10416868329048157], "name" : "POSITION"}, {"bufferView" : 1, "byteOffset" : 12, "componentType" : 5126, "count" : 59267, "type" : "VEC2", "max" : [1, -0], "min" : [0, -1], "name" : "TEXCOORD_0"}], "asset" : {"generator" : "Aspose.3D 22.1", "version" : "2.0"}, "buffers" : [{"uri" : "data:application/octet-stream;base64,", "byteLength" : 1558664}], "bufferViews" : [{"buffer" : 0, "byteOffset" : 0, "byteLength" : 141696, "target" : 34963}, {"buffer" : 0, "byteOffset" : 141700, "byteLength" : 1416960, "byteStride" : 20, "target" : 34962}], "meshes" : [{"primitives" : [{"attributes" : {"POSITION" : 1, "TEXCOORD_0" : 2}, "indices" : 0, "mode" : 4}], "name" : "Tube01"}], "nodes" : [{"matrix" : [0.030711989849805832, 0.9995282888412476, 0, 0, 0, 0, 1, 0, 0.9995282888412476, -0.030711989849805832, 0, 0, -120.373291015625, 48.988407135009766, -112.03545379638672, 1], "mesh" : 0, "name" : "Tube01"}], "scene" : 0, "scenes" : [{"nodes" : [0]}]}