{
    "asset" : {
        "generator" : "Khronos glTF Blender I/O v1.6.16",
        "version" : "2.0"
    },
    "scene" : 0,
    "scenes" : [
        {
            "name" : "Scene",
            "nodes" : [
                0,
                1,
                2
            ]
        }
    ],
    "nodes" : [
        {
            "name" : "Light",
            "rotation" : [
                0.16907575726509094,
                0.7558803558349609,
                -0.27217137813568115,
                0.570947527885437
            ],
            "translation" : [
                4.076245307922363,
                5.903861999511719,
                -1.0054539442062378
            ]
        },
        {
            "name" : "Camera",
            "rotation" : [
                0.483536034822464,
                0.33687159419059753,
                -0.20870360732078552,
                0.7804827094078064
            ],
            "translation" : [
                7.358891487121582,
                4.958309173583984,
                6.925790786743164
            ]
        },
        {
            "mesh" : 0,
            "name" : "wheel3d",
            "rotation" : [
                0.7071068286895752,
                0,
                0,
                0.7071067094802856
            ],
            "scale" : [
                0.05575723946094513,
                0.05575723946094513,
                0.05575723946094513
            ],
            "translation" : [
                44.06250762939453,
                20.262863159179688,
                64.70892333984375
            ]
        }
    ],
    "materials" : [
        {
            "doubleSided" : true,
            "name" : "wire_135006006",
            "pbrMetallicRoughness" : {
                "baseColorFactor" : [
                    0.8000000715255737,
                    0.010887670330703259,
                    0.08160968869924545,
                    1
                ],
                "metallicFactor" : 0,
                "roughnessFactor" : 0.5
            }
        },
        {
            "doubleSided" : true,
            "name" : "wire_162162162",
            "pbrMetallicRoughness" : {
                "baseColorFactor" : [
                    0.020506633445620537,
                    0.020791469141840935,
                    0.01983095332980156,
                    1
                ],
                "metallicFactor" : 0,
                "roughnessFactor" : 0.5
            }
        },
        {
            "doubleSided" : true,
            "name" : "wire_115115115",
            "pbrMetallicRoughness" : {
                "baseColorFactor" : [
                    0.41610556840896606,
                    0.45640233159065247,
                    0.44056421518325806,
                    1
                ],
                "metallicFactor" : 0,
                "roughnessFactor" : 0.5
            }
        },
        {
            "doubleSided" : true,
            "name" : "Material__324",
            "pbrMetallicRoughness" : {
                "baseColorFactor" : [
                    0.007300895638763905,
                    0.0008466499857604504,
                    0.8000000715255737,
                    1
                ],
                "metallicFactor" : 0,
                "roughnessFactor" : 0.5
            }
        },
        {
            "doubleSided" : true,
            "name" : "wire_086086086",
            "pbrMetallicRoughness" : {
                "baseColorFactor" : [
                    0.07035703957080841,
                    0.0690230131149292,
                    0.06509906053543091,
                    1
                ],
                "metallicFactor" : 0,
                "roughnessFactor" : 0.5
            }
        },
        {
            "doubleSided" : true,
            "name" : "wire_148177027",
            "pbrMetallicRoughness" : {
                "baseColorFactor" : [
                    0.8000000715255737,
                    0.6594348549842834,
                    0.2701086699962616,
                    1
                ],
                "metallicFactor" : 0,
                "roughnessFactor" : 0.5
            }
        },
        {
            "doubleSided" : true,
            "name" : "wire_006135058",
            "pbrMetallicRoughness" : {
                "baseColorFactor" : [
                    0.8000000715255737,
                    0.7662861943244934,
                    0.4961202144622803,
                    1
                ],
                "metallicFactor" : 0,
                "roughnessFactor" : 0.5
            }
        }
    ],
    "meshes" : [
        {
            "name" : "wheel3d",
            "primitives" : [
                {
                    "attributes" : {
                        "POSITION" : 0,
                        "NORMAL" : 1,
                        "TEXCOORD_0" : 2
                    },
                    "indices" : 3,
                    "material" : 0
                },
                {
                    "attributes" : {
                        "POSITION" : 4,
                        "NORMAL" : 5,
                        "TEXCOORD_0" : 6
                    },
                    "indices" : 7,
                    "material" : 1
                },
                {
                    "attributes" : {
                        "POSITION" : 8,
                        "NORMAL" : 9,
                        "TEXCOORD_0" : 10
                    },
                    "indices" : 11,
                    "material" : 2
                },
                {
                    "attributes" : {
                        "POSITION" : 12,
                        "NORMAL" : 13,
                        "TEXCOORD_0" : 14
                    },
                    "indices" : 15,
                    "material" : 3
                },
                {
                    "attributes" : {
                        "POSITION" : 16,
                        "NORMAL" : 17,
                        "TEXCOORD_0" : 18
                    },
                    "indices" : 19,
                    "material" : 4
                },
                {
                    "attributes" : {
                        "POSITION" : 20,
                        "NORMAL" : 21,
                        "TEXCOORD_0" : 22
                    },
                    "indices" : 23,
                    "material" : 5
                },
                {
                    "attributes" : {
                        "POSITION" : 24,
                        "NORMAL" : 25,
                        "TEXCOORD_0" : 26
                    },
                    "indices" : 27,
                    "material" : 6
                }
            ]
        }
    ],
    "accessors" : [
        {
            "bufferView" : 0,
            "componentType" : 5126,
            "count" : 11268,
            "max" : [
                69.62596130371094,
                164.78988647460938,
                130.40159606933594
            ],
            "min" : [
                -11.133636474609375,
                59.09088897705078,
                -165.39981079101562
            ],
            "type" : "VEC3"
        },
        {
            "bufferView" : 1,
            "componentType" : 5126,
            "count" : 11268,
            "type" : "VEC3"
        },
        {
            "bufferView" : 2,
            "componentType" : 5126,
            "count" : 11268,
            "type" : "VEC2"
        },
        {
            "bufferView" : 3,
            "componentType" : 5123,
            "count" : 66024,
            "type" : "SCALAR"
        },
        {
            "bufferView" : 4,
            "componentType" : 5126,
            "count" : 5667,
            "max" : [
                134.99478149414062,
                239.01077270507812,
                289.78460693359375
            ],
            "min" : [
                -127.50323486328125,
                -327.5168151855469,
                -276.7384948730469
            ],
            "type" : "VEC3"
        },
        {
            "bufferView" : 5,
            "componentType" : 5126,
            "count" : 5667,
            "type" : "VEC3"
        },
        {
            "bufferView" : 6,
            "componentType" : 5126,
            "count" : 5667,
            "type" : "VEC2"
        },
        {
            "bufferView" : 7,
            "componentType" : 5123,
            "count" : 32940,
            "type" : "SCALAR"
        },
        {
            "bufferView" : 8,
            "componentType" : 5126,
            "count" : 2857,
            "max" : [
                42.14186096191406,
                148.62899780273438,
                199.4510955810547
            ],
            "min" : [
                -27.777435302734375,
                -237.13641357421875,
                -186.31423950195312
            ],
            "type" : "VEC3"
        },
        {
            "bufferView" : 9,
            "componentType" : 5126,
            "count" : 2857,
            "type" : "VEC3"
        },
        {
            "bufferView" : 10,
            "componentType" : 5126,
            "count" : 2857,
            "type" : "VEC2"
        },
        {
            "bufferView" : 11,
            "componentType" : 5123,
            "count" : 13908,
            "type" : "SCALAR"
        },
        {
            "bufferView" : 12,
            "componentType" : 5126,
            "count" : 2160,
            "max" : [
                10.198867797851562,
                80.99488830566406,
                136.74110412597656
            ],
            "min" : [
                7.835662841796875,
                -169.5023193359375,
                -123.60421752929688
            ],
            "type" : "VEC3"
        },
        {
            "bufferView" : 13,
            "componentType" : 5126,
            "count" : 2160,
            "type" : "VEC3"
        },
        {
            "bufferView" : 14,
            "componentType" : 5126,
            "count" : 2160,
            "type" : "VEC2"
        },
        {
            "bufferView" : 15,
            "componentType" : 5123,
            "count" : 11520,
            "type" : "SCALAR"
        },
        {
            "bufferView" : 16,
            "componentType" : 5126,
            "count" : 21888,
            "max" : [
                135.59738159179688,
                293.3534851074219,
                344.1355895996094
            ],
            "min" : [
                -127.78423309326172,
                -381.85882568359375,
                -331.0766906738281
            ],
            "type" : "VEC3"
        },
        {
            "bufferView" : 17,
            "componentType" : 5126,
            "count" : 21888,
            "type" : "VEC3"
        },
        {
            "bufferView" : 18,
            "componentType" : 5126,
            "count" : 21888,
            "type" : "VEC2"
        },
        {
            "bufferView" : 19,
            "componentType" : 5123,
            "count" : 76896,
            "type" : "SCALAR"
        },
        {
            "bufferView" : 20,
            "componentType" : 5126,
            "count" : 9566,
            "max" : [
                -27.894439697265625,
                228.68228149414062,
                264.3786926269531
            ],
            "min" : [
                -108.28803253173828,
                -317.1897277832031,
                -259.2431335449219
            ],
            "type" : "VEC3"
        },
        {
            "bufferView" : 21,
            "componentType" : 5126,
            "count" : 9566,
            "type" : "VEC3"
        },
        {
            "bufferView" : 22,
            "componentType" : 5126,
            "count" : 9566,
            "type" : "VEC2"
        },
        {
            "bufferView" : 23,
            "componentType" : 5123,
            "count" : 36780,
            "type" : "SCALAR"
        },
        {
            "bufferView" : 24,
            "componentType" : 5126,
            "count" : 25,
            "max" : [
                108.02224731445312,
                36.526084899902344,
                -275.2727355957031
            ],
            "min" : [
                -110.6943359375,
                -163.859619140625,
                -275.2727355957031
            ],
            "type" : "VEC3"
        },
        {
            "bufferView" : 25,
            "componentType" : 5126,
            "count" : 25,
            "type" : "VEC3"
        },
        {
            "bufferView" : 26,
            "componentType" : 5126,
            "count" : 25,
            "type" : "VEC2"
        },
        {
            "bufferView" : 27,
            "componentType" : 5123,
            "count" : 96,
            "type" : "SCALAR"
        }
    ],
    "bufferViews" : [
        {
            "buffer" : 0,
            "byteLength" : 135216,
            "byteOffset" : 0
        },
        {
            "buffer" : 0,
            "byteLength" : 135216,
            "byteOffset" : 135216
        },
        {
            "buffer" : 0,
            "byteLength" : 90144,
            "byteOffset" : 270432
        },
        {
            "buffer" : 0,
            "byteLength" : 132048,
            "byteOffset" : 360576
        },
        {
            "buffer" : 0,
            "byteLength" : 68004,
            "byteOffset" : 492624
        },
        {
            "buffer" : 0,
            "byteLength" : 68004,
            "byteOffset" : 560628
        },
        {
            "buffer" : 0,
            "byteLength" : 45336,
            "byteOffset" : 628632
        },
        {
            "buffer" : 0,
            "byteLength" : 65880,
            "byteOffset" : 673968
        },
        {
            "buffer" : 0,
            "byteLength" : 34284,
            "byteOffset" : 739848
        },
        {
            "buffer" : 0,
            "byteLength" : 34284,
            "byteOffset" : 774132
        },
        {
            "buffer" : 0,
            "byteLength" : 22856,
            "byteOffset" : 808416
        },
        {
            "buffer" : 0,
            "byteLength" : 27816,
            "byteOffset" : 831272
        },
        {
            "buffer" : 0,
            "byteLength" : 25920,
            "byteOffset" : 859088
        },
        {
            "buffer" : 0,
            "byteLength" : 25920,
            "byteOffset" : 885008
        },
        {
            "buffer" : 0,
            "byteLength" : 17280,
            "byteOffset" : 910928
        },
        {
            "buffer" : 0,
            "byteLength" : 23040,
            "byteOffset" : 928208
        },
        {
            "buffer" : 0,
            "byteLength" : 262656,
            "byteOffset" : 951248
        },
        {
            "buffer" : 0,
            "byteLength" : 262656,
            "byteOffset" : 1213904
        },
        {
            "buffer" : 0,
            "byteLength" : 175104,
            "byteOffset" : 1476560
        },
        {
            "buffer" : 0,
            "byteLength" : 153792,
            "byteOffset" : 1651664
        },
        {
            "buffer" : 0,
            "byteLength" : 114792,
            "byteOffset" : 1805456
        },
        {
            "buffer" : 0,
            "byteLength" : 114792,
            "byteOffset" : 1920248
        },
        {
            "buffer" : 0,
            "byteLength" : 76528,
            "byteOffset" : 2035040
        },
        {
            "buffer" : 0,
            "byteLength" : 73560,
            "byteOffset" : 2111568
        },
        {
            "buffer" : 0,
            "byteLength" : 300,
            "byteOffset" : 2185128
        },
        {
            "buffer" : 0,
            "byteLength" : 300,
            "byteOffset" : 2185428
        },
        {
            "buffer" : 0,
            "byteLength" : 200,
            "byteOffset" : 2185728
        },
        {
            "buffer" : 0,
            "byteLength" : 192,
            "byteOffset" : 2185928
        }
    ],
    "buffers" : [
        {
            "byteLength" : 2186120,
            "uri" : "data:application/octet-stream;base64,"
        }
    ]
}
