{
    "asset" : {
        "generator" : "Khronos glTF Blender I/O v1.8.19",
        "version" : "2.0"
    },
    "scene" : 0,
    "scenes" : [
        {
            "name" : "Scene",
            "nodes" : [
                0
            ]
        }
    ],
    "nodes" : [
        {
            "mesh" : 0,
            "name" : "e05",
            "rotation" : [
                0.7071068286895752,
                0,
                0,
                0.7071067094802856
            ],
            "scale" : [
                -0.06835012882947922,
                0.06940977275371552,
                0.06940977275371552
            ],
            "translation" : [
                3.5834524631500244,
                2.4733259677886963,
                3.777672052383423
            ]
        }
    ],
    "materials" : [
        {
            "doubleSided" : true,
            "name" : "2",
            "pbrMetallicRoughness" : {
                "baseColorFactor" : [
                    0.9113937616348267,
                    0.6016677618026733,
                    0,
                    1
                ],
                "metallicFactor" : 0,
                "roughnessFactor" : 0.4000000059604645
            }
        },
        {
            "doubleSided" : true,
            "name" : "1",
            "pbrMetallicRoughness" : {
                "baseColorFactor" : [
                    0.03106333129107952,
                    0.03106333129107952,
                    0.03106333129107952,
                    1
                ],
                "metallicFactor" : 0,
                "roughnessFactor" : 0.4000000059604645
            }
        },
        {
            "doubleSided" : true,
            "name" : "09___Default",
            "pbrMetallicRoughness" : {
                "baseColorFactor" : [
                    0.03106333129107952,
                    0.03106333129107952,
                    0.03106333129107952,
                    1
                ],
                "metallicFactor" : 0,
                "roughnessFactor" : 0.4000000059604645
            }
        },
        {
            "doubleSided" : true,
            "name" : "3",
            "pbrMetallicRoughness" : {
                "baseColorFactor" : [
                    0.8000000715255737,
                    0.006231686100363731,
                    0.00929979607462883,
                    1
                ],
                "metallicFactor" : 0,
                "roughnessFactor" : 0.4000000059604645
            }
        },
        {
            "doubleSided" : true,
            "name" : "5",
            "pbrMetallicRoughness" : {
                "baseColorFactor" : [
                    0.8000000715255737,
                    0.2764476537704468,
                    0.04120071977376938,
                    1
                ],
                "metallicFactor" : 0,
                "roughnessFactor" : 0.4000000059604645
            }
        },
        {
            "doubleSided" : true,
            "name" : "07___Default",
            "pbrMetallicRoughness" : {
                "baseColorFactor" : [
                    0.8000000715255737,
                    0.004939555656164885,
                    0.004939555656164885,
                    1
                ],
                "metallicFactor" : 0,
                "roughnessFactor" : 0.4000000059604645
            }
        },
        {
            "doubleSided" : true,
            "name" : "7",
            "pbrMetallicRoughness" : {
                "baseColorFactor" : [
                    0.02948673442006111,
                    0.017154499888420105,
                    0.8000000715255737,
                    1
                ],
                "metallicFactor" : 0,
                "roughnessFactor" : 0.4000000059604645
            }
        }
    ],
    "meshes" : [
        {
            "name" : "e05",
            "primitives" : [
                {
                    "attributes" : {
                        "POSITION" : 0,
                        "NORMAL" : 1,
                        "TEXCOORD_0" : 2
                    },
                    "indices" : 3,
                    "material" : 0
                },
                {
                    "attributes" : {
                        "POSITION" : 4,
                        "NORMAL" : 5,
                        "TEXCOORD_0" : 6
                    },
                    "indices" : 7,
                    "material" : 1
                },
                {
                    "attributes" : {
                        "POSITION" : 8,
                        "NORMAL" : 9,
                        "TEXCOORD_0" : 10
                    },
                    "indices" : 11,
                    "material" : 2
                },
                {
                    "attributes" : {
                        "POSITION" : 12,
                        "NORMAL" : 13,
                        "TEXCOORD_0" : 14
                    },
                    "indices" : 15,
                    "material" : 3
                },
                {
                    "attributes" : {
                        "POSITION" : 16,
                        "NORMAL" : 17,
                        "TEXCOORD_0" : 18
                    },
                    "indices" : 19,
                    "material" : 4
                },
                {
                    "attributes" : {
                        "POSITION" : 20,
                        "NORMAL" : 21,
                        "TEXCOORD_0" : 22
                    },
                    "indices" : 23,
                    "material" : 5
                },
                {
                    "attributes" : {
                        "POSITION" : 24,
                        "NORMAL" : 25,
                        "TEXCOORD_0" : 26
                    },
                    "indices" : 27,
                    "material" : 6
                }
            ]
        }
    ],
    "accessors" : [
        {
            "bufferView" : 0,
            "componentType" : 5126,
            "count" : 7485,
            "max" : [
                6.54010009765625,
                20.48430061340332,
                20.484100341796875
            ],
            "min" : [
                2.785099983215332,
                -20.48390007019043,
                -20.484100341796875
            ],
            "type" : "VEC3"
        },
        {
            "bufferView" : 1,
            "componentType" : 5126,
            "count" : 7485,
            "type" : "VEC3"
        },
        {
            "bufferView" : 2,
            "componentType" : 5126,
            "count" : 7485,
            "type" : "VEC2"
        },
        {
            "bufferView" : 3,
            "componentType" : 5123,
            "count" : 42330,
            "type" : "SCALAR"
        },
        {
            "bufferView" : 4,
            "componentType" : 5126,
            "count" : 2525,
            "max" : [
                12.838299751281738,
                22.925399780273438,
                22.925399780273438
            ],
            "min" : [
                0.015200000256299973,
                -22.925399780273438,
                -22.925399780273438
            ],
            "type" : "VEC3"
        },
        {
            "bufferView" : 5,
            "componentType" : 5126,
            "count" : 2525,
            "type" : "VEC3"
        },
        {
            "bufferView" : 6,
            "componentType" : 5126,
            "count" : 2525,
            "type" : "VEC2"
        },
        {
            "bufferView" : 7,
            "componentType" : 5123,
            "count" : 14400,
            "type" : "SCALAR"
        },
        {
            "bufferView" : 8,
            "componentType" : 5126,
            "count" : 1201,
            "max" : [
                2.61080002784729,
                22.53619956970215,
                22.580799102783203
            ],
            "min" : [
                -12.838299751281738,
                -22.53619956970215,
                -22.580799102783203
            ],
            "type" : "VEC3"
        },
        {
            "bufferView" : 9,
            "componentType" : 5126,
            "count" : 1201,
            "type" : "VEC3"
        },
        {
            "bufferView" : 10,
            "componentType" : 5126,
            "count" : 1201,
            "type" : "VEC2"
        },
        {
            "bufferView" : 11,
            "componentType" : 5123,
            "count" : 5850,
            "type" : "SCALAR"
        },
        {
            "bufferView" : 12,
            "componentType" : 5126,
            "count" : 3630,
            "max" : [
                3.948899984359741,
                20.1471004486084,
                20.14739990234375
            ],
            "min" : [
                3.5078999996185303,
                -20.147300720214844,
                -19.675899505615234
            ],
            "type" : "VEC3"
        },
        {
            "bufferView" : 13,
            "componentType" : 5126,
            "count" : 3630,
            "type" : "VEC3"
        },
        {
            "bufferView" : 14,
            "componentType" : 5126,
            "count" : 3630,
            "type" : "VEC2"
        },
        {
            "bufferView" : 15,
            "componentType" : 5123,
            "count" : 14040,
            "type" : "SCALAR"
        },
        {
            "bufferView" : 16,
            "componentType" : 5126,
            "count" : 960,
            "max" : [
                5.178899765014648,
                2.7918999195098877,
                2.8057000637054443
            ],
            "min" : [
                4.797999858856201,
                -2.792099952697754,
                -2.77839994430542
            ],
            "type" : "VEC3"
        },
        {
            "bufferView" : 17,
            "componentType" : 5126,
            "count" : 960,
            "type" : "VEC3"
        },
        {
            "bufferView" : 18,
            "componentType" : 5126,
            "count" : 960,
            "type" : "VEC2"
        },
        {
            "bufferView" : 19,
            "componentType" : 5123,
            "count" : 5760,
            "type" : "SCALAR"
        },
        {
            "bufferView" : 20,
            "componentType" : 5126,
            "count" : 4024,
            "max" : [
                5.98390007019043,
                5.305799961090088,
                4.667699813842773
            ],
            "min" : [
                3.5580999851226807,
                -5.305799961090088,
                -5.526599884033203
            ],
            "type" : "VEC3"
        },
        {
            "bufferView" : 21,
            "componentType" : 5126,
            "count" : 4024,
            "type" : "VEC3"
        },
        {
            "bufferView" : 22,
            "componentType" : 5126,
            "count" : 4024,
            "type" : "VEC2"
        },
        {
            "bufferView" : 23,
            "componentType" : 5123,
            "count" : 21204,
            "type" : "SCALAR"
        },
        {
            "bufferView" : 24,
            "componentType" : 5126,
            "count" : 1843,
            "max" : [
                5.05620002746582,
                1.8194999694824219,
                1.3346999883651733
            ],
            "min" : [
                4.947800159454346,
                -1.819700002670288,
                -1.030900001525879
            ],
            "type" : "VEC3"
        },
        {
            "bufferView" : 25,
            "componentType" : 5126,
            "count" : 1843,
            "type" : "VEC3"
        },
        {
            "bufferView" : 26,
            "componentType" : 5126,
            "count" : 1843,
            "type" : "VEC2"
        },
        {
            "bufferView" : 27,
            "componentType" : 5123,
            "count" : 4857,
            "type" : "SCALAR"
        }
    ],
    "bufferViews" : [
        {
            "buffer" : 0,
            "byteLength" : 89820,
            "byteOffset" : 0
        },
        {
            "buffer" : 0,
            "byteLength" : 89820,
            "byteOffset" : 89820
        },
        {
            "buffer" : 0,
            "byteLength" : 59880,
            "byteOffset" : 179640
        },
        {
            "buffer" : 0,
            "byteLength" : 84660,
            "byteOffset" : 239520
        },
        {
            "buffer" : 0,
            "byteLength" : 30300,
            "byteOffset" : 324180
        },
        {
            "buffer" : 0,
            "byteLength" : 30300,
            "byteOffset" : 354480
        },
        {
            "buffer" : 0,
            "byteLength" : 20200,
            "byteOffset" : 384780
        },
        {
            "buffer" : 0,
            "byteLength" : 28800,
            "byteOffset" : 404980
        },
        {
            "buffer" : 0,
            "byteLength" : 14412,
            "byteOffset" : 433780
        },
        {
            "buffer" : 0,
            "byteLength" : 14412,
            "byteOffset" : 448192
        },
        {
            "buffer" : 0,
            "byteLength" : 9608,
            "byteOffset" : 462604
        },
        {
            "buffer" : 0,
            "byteLength" : 11700,
            "byteOffset" : 472212
        },
        {
            "buffer" : 0,
            "byteLength" : 43560,
            "byteOffset" : 483912
        },
        {
            "buffer" : 0,
            "byteLength" : 43560,
            "byteOffset" : 527472
        },
        {
            "buffer" : 0,
            "byteLength" : 29040,
            "byteOffset" : 571032
        },
        {
            "buffer" : 0,
            "byteLength" : 28080,
            "byteOffset" : 600072
        },
        {
            "buffer" : 0,
            "byteLength" : 11520,
            "byteOffset" : 628152
        },
        {
            "buffer" : 0,
            "byteLength" : 11520,
            "byteOffset" : 639672
        },
        {
            "buffer" : 0,
            "byteLength" : 7680,
            "byteOffset" : 651192
        },
        {
            "buffer" : 0,
            "byteLength" : 11520,
            "byteOffset" : 658872
        },
        {
            "buffer" : 0,
            "byteLength" : 48288,
            "byteOffset" : 670392
        },
        {
            "buffer" : 0,
            "byteLength" : 48288,
            "byteOffset" : 718680
        },
        {
            "buffer" : 0,
            "byteLength" : 32192,
            "byteOffset" : 766968
        },
        {
            "buffer" : 0,
            "byteLength" : 42408,
            "byteOffset" : 799160
        },
        {
            "buffer" : 0,
            "byteLength" : 22116,
            "byteOffset" : 841568
        },
        {
            "buffer" : 0,
            "byteLength" : 22116,
            "byteOffset" : 863684
        },
        {
            "buffer" : 0,
            "byteLength" : 14744,
            "byteOffset" : 885800
        },
        {
            "buffer" : 0,
            "byteLength" : 9714,
            "byteOffset" : 900544
        }
    ],
    "buffers" : [
        {
            "byteLength" : 910260,
            "uri" : "data:application/octet-stream;base64,"
        }
    ]
}
